<?xml version="1.0" encoding="UTF-8" standalone="no"?>
<svg
   xmlns:dc="http://purl.org/dc/elements/1.1/"
   xmlns:cc="http://creativecommons.org/ns#"
   xmlns:rdf="http://www.w3.org/1999/02/22-rdf-syntax-ns#"
   xmlns:svg="http://www.w3.org/2000/svg"
   xmlns="http://www.w3.org/2000/svg"
   xmlns:xlink="http://www.w3.org/1999/xlink"
   xmlns:sodipodi="http://sodipodi.sourceforge.net/DTD/sodipodi-0.dtd"
   xmlns:inkscape="http://www.inkscape.org/namespaces/inkscape"
   inkscape:version="1.0beta1 (32d4812, 2019-09-19)"
   sodipodi:docname="icon-device.svg"
   id="svg4344"
   preserveAspectRatio="xMidYMid meet"
   viewBox="0 0 45 45"
   height="60"
   width="60"
   version="1.0"
   inkscape:export-filename="/Users/bpetersen/Documents/deltachat/icons/device4.png"
   inkscape:export-xdpi="96"
   inkscape:export-ydpi="96">
  <defs
     id="defs4348">
    <linearGradient
       inkscape:collect="always"
       id="linearGradient865">
      <stop
         style="stop-color:#364e59;stop-opacity:1;"
         offset="0"
         id="stop861" />
      <stop
         style="stop-color:#ffffff;stop-opacity:1"
         offset="1"
         id="stop863" />
    </linearGradient>
    <linearGradient
       inkscape:collect="always"
       xlink:href="#linearGradient865"
       id="linearGradient867"
       x1="10.227795"
       y1="43.5238"
       x2="-25.458139"
       y2="-7.4257693"
       gradientUnits="userSpaceOnUse" />
  </defs>
  <sodipodi:namedview
     inkscape:current-layer="svg4344"
     inkscape:window-maximized="0"
     inkscape:window-y="23"
     inkscape:window-x="45"
     inkscape:cy="28.471578"
     inkscape:cx="41.455164"
     inkscape:zoom="5.6"
     units="px"
     showgrid="false"
     id="namedview4346"
     inkscape:window-height="1035"
     inkscape:window-width="1600"
     inkscape:pageshadow="2"
     inkscape:pageopacity="0"
     guidetolerance="10"
     gridtolerance="10"
     objecttolerance="10"
     borderopacity="1"
     inkscape:document-rotation="0"
     bordercolor="#666666"
     pagecolor="#ffffff" />
  <metadata
     id="metadata4336">
Created by potrace 1.15, written by Peter Selinger 2001-2017
<rdf:RDF>
  <cc:Work
     rdf:about="">
    <dc:format>image/svg+xml</dc:format>
    <dc:type
       rdf:resource="http://purl.org/dc/dcmitype/StillImage" />
    <dc:title />
  </cc:Work>
</rdf:RDF>
</metadata>
  <circle
     style="opacity:1;fill:#ffffff;fill-opacity:1;stroke-width:0.731071"
     id="path859"
     cx="22.5"
     cy="22.5"
     r="22.5" />
  <circle
     r="22.5"
     cy="22.5"
     cx="22.5"
     id="path4917"
     style="fill:url(#linearGradient867);fill-opacity:1;stroke-width:0.588554" />
  <g
     id="g4342"
     stroke="none"
     fill="#000000"
     transform="matrix(0.00255113,0,0,-0.00255113,5.586152,38.200477)"
     style="fill:#ffffff;fill-opacity:1">
    <path
       inkscape:connector-curvature="0"
       id="path4338"
       d="m 8175,12765 c -703,-114 -1248,-608 -1387,-1258 -17,-82 -21,-136 -22,-277 0,-202 15,-307 70,-470 149,-446 499,-733 1009,-828 142,-26 465,-23 619,6 691,131 1201,609 1328,1244 31,158 31,417 0,565 -114,533 -482,889 -1038,1004 -133,27 -448,35 -579,14 z"
       style="fill:#ffffff;fill-opacity:1" />
    <path
       inkscape:connector-curvature="0"
       id="path4340"
       d="m 7070,9203 c -212,-20 -275,-27 -397,-48 -691,-117 -1400,-444 -2038,-940 -182,-142 -328,-270 -585,-517 -595,-571 -911,-974 -927,-1181 -6,-76 11,-120 69,-184 75,-80 159,-108 245,-79 109,37 263,181 632,595 539,606 774,826 1035,969 135,75 231,105 341,106 82,1 94,-2 138,-27 116,-68 161,-209 122,-376 -9,-36 -349,-868 -757,-1850 -407,-982 -785,-1892 -838,-2021 -287,-694 -513,-1389 -615,-1889 -70,-342 -90,-683 -52,-874 88,-440 381,-703 882,-792 124,-23 401,-30 562,-16 783,69 1674,461 2561,1125 796,596 1492,1354 1607,1751 43,146 -33,308 -168,360 -61,23 -100,15 -173,-36 -105,-74 -202,-170 -539,-529 -515,-551 -762,-783 -982,-927 -251,-164 -437,-186 -543,-65 -56,64 -74,131 -67,247 13,179 91,434 249,815 135,324 1588,4102 1646,4280 106,325 151,561 159,826 9,281 -22,463 -112,652 -58,122 -114,199 -211,292 -245,233 -582,343 -1044,338 -91,-1 -181,-3 -200,-5 z"
       style="fill:#ffffff;fill-opacity:1" />
  </g>
</svg>
